<?xml version="1.0" encoding="utf-8"?>
<!-- Generator: Adobe Illustrator 21.1.0, SVG Export Plug-In . SVG Version: 6.00 Build 0)  -->
<svg version="1.1" id="Capa_1" xmlns="http://www.w3.org/2000/svg" xmlns:xlink="http://www.w3.org/1999/xlink" x="0px" y="0px"
	 viewBox="0 0 399 260" style="enable-background:new 0 0 399 260;" xml:space="preserve">
<style type="text/css">
	.st0{fill:#010202;}
	.st1{fill:#B71918;}
	.st2{fill:#FFFFFF;}
	.st3{font-family:'ExpresswayRg-Regular';}
	.st4{font-size:21.9673px;}
</style>
<path class="st0" d="M326.3,58.8c-0.2,0-0.4-0.1-0.6-0.1h-84.2c-0.7,0-1.3,0.6-1.3,1.3l0,89.8c0,0.7-0.6,1.3-1.3,1.3H43.3
	c-0.7,0-1.3,0.6-1.3,1.3v28c0,0.7,0.6,1.3,1.3,1.3h18.2c0,0.1,0,0.3,0,0.4c0,14.3,11.6,25.9,25.9,25.9c14.3,0,25.9-11.6,25.9-25.9
	c0-0.1,0-0.3,0-0.4h26.4c0,0.1,0,0.3,0,0.4c0,14.3,11.6,25.9,25.9,25.9c14.3,0,25.9-11.6,25.9-25.9c0-0.1,0-0.3,0-0.4h75
	c0,0.1,0,0.3,0,0.4c0,14.3,11.6,25.9,25.9,25.9c14.3,0,25.9-11.6,25.9-25.9c0-0.1,0-0.3,0-0.4h27.6c3.9,0,7.6-10.1,7.6-19.6
	C353.5,161.9,353.5,63.8,326.3,58.8z M325.6,144.3h-60.7c-0.8,0-1.4-0.6-1.4-1.4V85.1c0-0.8,0.6-1.4,1.4-1.4h49.5
	c0.4,0,0.8,0.2,1.1,0.5c10.5,13.2,11.5,50.3,11.6,58.7C327,143.7,326.4,144.3,325.6,144.3z"/>
<g>
	<path class="st0" d="M124.4,124.4v21.4h-23.8L124.4,124.4z"/>
	<path class="st0" d="M205.1,59c0,0-24.7-1.7-61.9,31.6c-24.4,21.8-42.6,55.3-42.6,55.3h23.8c0,0,6-18.4,19.3-36.3v15.9
		c0,4.8,0.3,8.6,1,11.4c0.7,2.9,2,5,3.9,6.6c1.9,1.5,4.6,2.5,8.1,3c3.5,0.5,7.9,0.7,13.4,0.7c5.2,0,9.4-0.2,12.7-0.7
		c3.3-0.5,5.9-1.5,7.8-3c1.9-1.5,3.2-3.7,3.9-6.6c0.7-2.9,1.1-6.7,1.1-11.4v-23.7h-22.8v23.7c0,1.1-0.1,1.9-0.4,2.3
		c-0.3,0.4-1.1,0.6-2.3,0.6c-1.3,0-2-0.2-2.3-0.6s-0.4-1.1-0.4-2.3V84.5c1.9-1.8,3.8-3.4,5.5-4.9v7.2h22.8V63.9v-0.4
		c0-0.2,0-0.3,0-0.4C201.9,59.6,205.1,59,205.1,59z"/>
	<path class="st1" d="M167.3,69.8v-6.2c0-1.1,0.1-1.9,0.4-2.3c0.3-0.4,1.1-0.6,2.3-0.6c1.3,0,2,0.2,2.3,0.6c0.3,0.4,0.4,1.1,0.4,2.3
		V67c9.3-4.3,17.1-6.3,22.7-7.3c-0.1-3-0.5-5.5-1-7.5c-0.7-2.8-2-5-3.9-6.5c-1.9-1.5-4.5-2.5-7.8-3c-3.3-0.5-7.5-0.7-12.7-0.7
		c-5.5,0-9.9,0.2-13.4,0.7c-3.5,0.5-6.2,1.5-8.1,3c-1.9,1.5-3.3,3.7-3.9,6.5c-0.7,2.8-1,6.6-1,11.4v22.2
		C152.1,78.8,160.1,73.6,167.3,69.8z"/>
</g>
<text transform="matrix(0.99 0 0 1 44.4727 172.9707)"><tspan x="0" y="0" class="st2 st3 st4">Tran</tspan><tspan x="45.4" y="0" class="st2 st3 st4">s</tspan><tspan x="55.6" y="0" class="st2 st3 st4">p</tspan><tspan x="67.7" y="0" class="st2 st3 st4">o</tspan><tspan x="79.5" y="0" class="st2 st3 st4">r</tspan><tspan x="88.6" y="0" class="st2 st3 st4">te Ca</tspan><tspan x="138.9" y="0" class="st2 st3 st4">r</tspan><tspan x="147.7" y="0" class="st2 st3 st4">c</tspan><tspan x="158.4" y="0" class="st2 st3 st4">h</tspan><tspan x="170.7" y="0" class="st2 st3 st4">e</tspan><tspan x="182.5" y="0" class="st2 st3 st4">di</tspan></text>
<path class="st1" d="M86.5,43.3v17.9v2.7h14.1V131c0.2-0.3,8.6-11.9,23.8-27.3V63.9h14.1v-2.7V43.3H86.5z"/>
</svg>
