<?xml version="1.0" encoding="utf-8"?>
<!-- Generator: Adobe Illustrator 21.1.0, SVG Export Plug-In . SVG Version: 6.00 Build 0)  -->
<svg version="1.1" id="Capa_1" xmlns="http://www.w3.org/2000/svg" xmlns:xlink="http://www.w3.org/1999/xlink" x="0px" y="0px"
	 viewBox="0 0 160 132" style="enable-background:new 0 0 160 132;" xml:space="preserve">
<style type="text/css">
	.st0{fill:#010202;}
	.st1{fill:#B71918;}
</style>
<g>
	<path class="st0" d="M60.4,94.4v21.4H36.6L60.4,94.4z"/>
	<path class="st0" d="M141.1,29c0,0-24.7-1.7-61.9,31.6c-24.4,21.8-42.6,55.3-42.6,55.3h23.8c0,0,6-18.4,19.3-36.3v15.9
		c0,4.8,0.3,8.6,1,11.4c0.7,2.9,2,5,3.9,6.6c1.9,1.5,4.6,2.5,8.1,3s7.9,0.7,13.4,0.7c5.2,0,9.4-0.2,12.7-0.7s5.9-1.5,7.8-3
		c1.9-1.5,3.2-3.7,3.9-6.6c0.7-2.9,1.1-6.7,1.1-11.4V71.8h-22.8v23.7c0,1.1-0.1,1.9-0.4,2.3c-0.3,0.4-1.1,0.6-2.3,0.6
		c-1.3,0-2-0.2-2.3-0.6s-0.4-1.1-0.4-2.3v-41c1.9-1.8,3.8-3.4,5.5-4.9v7.2h22.8V33.9v-0.4c0-0.2,0-0.3,0-0.4
		C137.9,29.6,141.1,29,141.1,29z"/>
	<path class="st1" d="M103.3,39.8v-6.2c0-1.1,0.1-1.9,0.4-2.3c0.3-0.4,1.1-0.6,2.3-0.6c1.3,0,2,0.2,2.3,0.6c0.3,0.4,0.4,1.1,0.4,2.3
		V37c9.3-4.3,17.1-6.3,22.7-7.3c-0.1-3-0.5-5.5-1-7.5c-0.7-2.8-2-5-3.9-6.5s-4.5-2.5-7.8-3S111.2,12,106,12c-5.5,0-9.9,0.2-13.4,0.7
		s-6.2,1.5-8.1,3c-1.9,1.5-3.3,3.7-3.9,6.5c-0.7,2.8-1,6.6-1,11.4v22.2C88.1,48.8,96.1,43.6,103.3,39.8z"/>
</g>
<path class="st1" d="M22.5,13.3v17.9v2.7h14.1V101c0.2-0.3,8.6-11.9,23.8-27.3V33.9h14.1v-2.7V13.3H22.5z"/>
</svg>
